<svg width="30" height="30" viewBox="0 0 30 30" fill="none" xmlns="http://www.w3.org/2000/svg">
<g clip-path="url(#clip0_106_76)">
<path d="M16.0154 0.0307617C23.627 0.0307617 29.8548 6.25847 29.8548 13.8701V16.0324C29.8548 23.644 23.627 29.8718 16.0154 29.8718H13.8531C6.24147 29.8718 0.0137634 23.644 0.0137634 16.0324V13.8701C0.0137634 6.25847 6.24147 0.0307617 13.8531 0.0307617H16.0154ZM15.2063 7.53101L15.0138 7.53076C13.4104 7.53076 11.8071 7.58376 11.8071 7.58376C9.46521 7.58376 7.56676 9.48221 7.56676 11.8241C7.56676 11.8241 7.51809 13.2008 7.51403 14.6785L7.51376 14.8718C7.51376 16.5263 7.56676 18.2375 7.56676 18.2375C7.56676 20.5793 9.46521 22.4778 11.8071 22.4778C11.8071 22.4778 13.3061 22.5308 14.8548 22.5308C16.5093 22.5308 18.2735 22.4778 18.2735 22.4778C20.6153 22.4778 22.4608 20.6323 22.4608 18.2905C22.4608 18.2905 22.5138 16.5986 22.5138 14.9778L22.5128 14.5974C22.5056 13.1432 22.4607 11.771 22.4607 11.771C22.4607 9.42918 20.6153 7.58376 18.2734 7.58376C18.2734 7.58376 16.747 7.53491 15.2063 7.53101ZM15.0138 8.88072C16.3285 8.88072 18.0143 8.9242 18.0143 8.9242C19.9346 8.9242 21.1203 10.1099 21.1203 12.0302C21.1203 12.0302 21.1638 13.6872 21.1638 14.9872C21.1638 16.3163 21.1203 18.0312 21.1203 18.0312C21.1203 19.9516 19.9346 21.1372 18.0143 21.1372C18.0143 21.1372 16.5235 21.1737 15.23 21.1798L14.8834 21.1807C13.6135 21.1807 12.0662 21.1372 12.0662 21.1372C10.1459 21.1372 8.90724 19.8985 8.90724 17.9782C8.90724 17.9782 8.86376 16.2571 8.86376 14.9003C8.86376 13.6305 8.90724 12.0302 8.90724 12.0302C8.90724 10.1099 10.146 8.9242 12.0662 8.9242C12.0662 8.9242 13.699 8.88072 15.0138 8.88072ZM15.0137 11.1888C12.8919 11.1888 11.1718 12.9089 11.1718 15.0307C11.1718 17.1525 12.8919 18.8726 15.0137 18.8726C17.1356 18.8726 18.8556 17.1525 18.8556 15.0307C18.8556 12.9089 17.1356 11.1888 15.0137 11.1888ZM15.0137 12.5307C16.3945 12.5307 17.5137 13.65 17.5137 15.0307C17.5137 16.4114 16.3945 17.5307 15.0137 17.5307C13.633 17.5307 12.5137 16.4114 12.5137 15.0307C12.5137 13.65 13.633 12.5307 15.0137 12.5307ZM19.0395 10.1226C18.5268 10.1226 18.1112 10.5403 18.1112 11.0556C18.1112 11.5708 18.5268 11.9884 19.0395 11.9884C19.5522 11.9884 19.9678 11.5708 19.9678 11.0556C19.9678 10.5403 19.5522 10.1226 19.0395 10.1226Z" fill="black"/>
</g>
<defs>
<clipPath id="clip0_106_76">
<rect width="30" height="30" fill="white"/>
</clipPath>
</defs>
</svg>
